<svg xmlns="http://www.w3.org/2000/svg" width="24" height="28" viewBox="0 0 24 28">
  <metadata><?xpacket begin="﻿" id="W5M0MpCehiHzreSzNTczkc9d"?>
<x:xmpmeta xmlns:x="adobe:ns:meta/" x:xmptk="Adobe XMP Core 5.6-c140 79.160451, 2017/05/06-01:08:21        ">
   <rdf:RDF xmlns:rdf="http://www.w3.org/1999/02/22-rdf-syntax-ns#">
      <rdf:Description rdf:about=""/>
   </rdf:RDF>
</x:xmpmeta>
                                                                                                    
                                                                                                    
                                                                                                    
                                                                                                    
                                                                                                    
                                                                                                    
                                                                                                    
                                                                                                    
                                                                                                    
                                                                                                    
                                                                                                    
                                                                                                    
                                                                                                    
                                                                                                    
                                                                                                    
                                                                                                    
                                                                                                    
                                                                                                    
                                                                                                    
                                                                                                    
                           
<?xpacket end="w"?></metadata>
<defs>
    <style>
      .cls-1 {
        fill: #949393;
        fill-rule: evenodd;
      }
    </style>
  </defs>
  <path class="cls-1" d="M49,332v28H73V332H49Zm22.051,25.97L50.981,358V334H71.02Zm-5.782-14.118a3.441,3.441,0,0,0-1.871-3.093,3.136,3.136,0,0,0,.431-1.594,2.911,2.911,0,1,0-5.815,0,3.136,3.136,0,0,0,.431,1.594,3.44,3.44,0,0,0-1.871,3.093v4.164h8.694v-4.164ZM60.921,337.9a1.267,1.267,0,1,1-1.208,1.266A1.24,1.24,0,0,1,60.921,337.9Zm2.648,8.336h-5.3v-2.383a1.605,1.605,0,0,1,1.565-1.64H62a1.605,1.605,0,0,1,1.565,1.64v2.383Zm-8.546,3.777H66.975v1.969H55.023v-1.969Zm0,3.972H66.975v2.032H55.023v-2.032Z" transform="translate(-49 -332)"/>
</svg>
