<svg xmlns="http://www.w3.org/2000/svg" width="21" height="26" viewBox="0 0 21 26">
  <metadata><?xpacket begin="﻿" id="W5M0MpCehiHzreSzNTczkc9d"?>
<x:xmpmeta xmlns:x="adobe:ns:meta/" x:xmptk="Adobe XMP Core 5.6-c140 79.160451, 2017/05/06-01:08:21        ">
   <rdf:RDF xmlns:rdf="http://www.w3.org/1999/02/22-rdf-syntax-ns#">
      <rdf:Description rdf:about=""/>
   </rdf:RDF>
</x:xmpmeta>
                                                                                                    
                                                                                                    
                                                                                                    
                                                                                                    
                                                                                                    
                                                                                                    
                                                                                                    
                                                                                                    
                                                                                                    
                                                                                                    
                                                                                                    
                                                                                                    
                                                                                                    
                                                                                                    
                                                                                                    
                                                                                                    
                                                                                                    
                                                                                                    
                                                                                                    
                                                                                                    
                           
<?xpacket end="w"?></metadata>
<defs>
    <style>
      .cls-1 {
        fill-rule: evenodd;
      }
    </style>
  </defs>
  <path class="cls-1" d="M64.672,406.723h-0.5c1.223-1.088,2.914-2.688,2.914-4.468v-7.79h1v4.2h1.855v-4.2h1.021V393H51.041v1.965h2.973v7.29c0,1.78,1.274,3.38,2.5,4.468H56.328A6.394,6.394,0,0,0,50,413.167V419H71v-5.833A6.394,6.394,0,0,0,64.672,406.723Zm0.3-11.758v4.084H55.953v-4.084h9.024Zm-9.024,7.29V400.93h8.774v1.325a4.02,4.02,0,0,1-4.3,4.051C58,406.306,55.953,404.719,55.953,402.255Zm7.587,5.683L60.5,412.374l-3.04-4.436h6.079ZM69.03,417H51.97v-3.837c0-2.529,1.33-4.624,3.731-4.938l4.8,6.608,4.8-6.608c2.4,0.314,3.731,2.409,3.731,4.938V417Z" transform="translate(-50 -393)"/>
</svg>
